<svg width="24" height="24" viewBox="0 0 24 24" fill="none" xmlns="http://www.w3.org/2000/svg">
<g filter="url(#filter0_b_373_1339)">
<circle cx="12" cy="12" r="12" fill="white" fill-opacity="0.16"/>
<circle cx="12" cy="12" r="11.5002" stroke="#424242" stroke-width="0.999682"/>
</g>
<path d="M11.9987 10.5166C11.8019 10.5166 11.6132 10.5947 11.4741 10.7339C11.3349 10.873 11.2568 11.0617 11.2568 11.2585V15.7101C11.2568 15.9069 11.3349 16.0956 11.4741 16.2347C11.6132 16.3739 11.8019 16.4521 11.9987 16.4521C12.1955 16.4521 12.3842 16.3739 12.5233 16.2347C12.6625 16.0956 12.7406 15.9069 12.7406 15.7101V11.2585C12.7406 11.0617 12.6625 10.873 12.5233 10.7339C12.3842 10.5947 12.1955 10.5166 11.9987 10.5166ZM11.9987 7.54883C11.8153 7.54883 11.636 7.60322 11.4835 7.70513C11.3309 7.80703 11.2121 7.95188 11.1419 8.12134C11.0717 8.2908 11.0533 8.47728 11.0891 8.65718C11.1249 8.83708 11.2132 9.00233 11.3429 9.13203C11.4726 9.26173 11.6379 9.35006 11.8178 9.38585C11.9977 9.42163 12.1842 9.40327 12.3536 9.33307C12.5231 9.26288 12.6679 9.14401 12.7698 8.99149C12.8717 8.83898 12.9261 8.65967 12.9261 8.47625C12.9261 8.23028 12.8284 7.99439 12.6545 7.82046C12.4806 7.64654 12.2447 7.54883 11.9987 7.54883Z" fill="white"/>
<defs>
<filter id="filter0_b_373_1339" x="-8.99714" y="-8.99714" width="41.9943" height="41.9943" filterUnits="userSpaceOnUse" color-interpolation-filters="sRGB">
<feFlood flood-opacity="0" result="BackgroundImageFix"/>
<feGaussianBlur in="BackgroundImageFix" stdDeviation="4.49857"/>
<feComposite in2="SourceAlpha" operator="in" result="effect1_backgroundBlur_373_1339"/>
<feBlend mode="normal" in="SourceGraphic" in2="effect1_backgroundBlur_373_1339" result="shape"/>
</filter>
</defs>
</svg>
