<svg width="24" height="24" viewBox="0 0 24 24" fill="none" xmlns="http://www.w3.org/2000/svg">
<g filter="url(#filter0_b_373_1336)">
<circle cx="12" cy="12" r="12" fill="white" fill-opacity="0.16"/>
<circle cx="12" cy="12" r="11.5002" stroke="#424242" stroke-width="0.999682"/>
</g>
<g clip-path="url(#clip0_373_1336)">
<path d="M11.1163 14.5508C11.2324 14.667 11.3703 14.7591 11.522 14.822C11.6737 14.8849 11.8363 14.9172 12.0005 14.9172C12.1647 14.9172 12.3273 14.8849 12.479 14.822C12.6307 14.7591 12.7686 14.667 12.8847 14.5508L14.2226 13.2129C14.2943 13.1336 14.3328 13.0297 14.33 12.9228C14.3273 12.8159 14.2835 12.7141 14.2078 12.6385C14.1321 12.563 14.0303 12.5194 13.9233 12.5169C13.8164 12.5144 13.7126 12.5531 13.6334 12.625L12.4143 13.8446L12.4172 7.41667C12.4172 7.30616 12.3733 7.20018 12.2951 7.12204C12.217 7.0439 12.111 7 12.0005 7V7C11.89 7 11.784 7.0439 11.7059 7.12204C11.6277 7.20018 11.5838 7.30616 11.5838 7.41667L11.5801 13.8367L10.3676 12.625C10.2894 12.5469 10.1834 12.503 10.0729 12.503C9.96232 12.5031 9.85634 12.547 9.77821 12.6252C9.70008 12.7034 9.65621 12.8094 9.65625 12.9199C9.65629 13.0305 9.70023 13.1365 9.77842 13.2146L11.1163 14.5508Z" fill="white"/>
<path d="M16.5833 13.6665C16.4728 13.6665 16.3668 13.7104 16.2887 13.7885C16.2106 13.8667 16.1667 13.9727 16.1667 14.0832V15.7498C16.1667 15.8603 16.1228 15.9663 16.0446 16.0445C15.9665 16.1226 15.8605 16.1665 15.75 16.1665H8.25C8.13949 16.1665 8.03351 16.1226 7.95537 16.0445C7.87723 15.9663 7.83333 15.8603 7.83333 15.7498V14.0832C7.83333 13.9727 7.78943 13.8667 7.71129 13.7885C7.63315 13.7104 7.52717 13.6665 7.41667 13.6665C7.30616 13.6665 7.20018 13.7104 7.12204 13.7885C7.0439 13.8667 7 13.9727 7 14.0832V15.7498C7 16.0814 7.1317 16.3993 7.36612 16.6337C7.60054 16.8681 7.91848 16.9998 8.25 16.9998H15.75C16.0815 16.9998 16.3995 16.8681 16.6339 16.6337C16.8683 16.3993 17 16.0814 17 15.7498V14.0832C17 13.9727 16.9561 13.8667 16.878 13.7885C16.7998 13.7104 16.6938 13.6665 16.5833 13.6665Z" fill="white"/>
</g>
<defs>
<filter id="filter0_b_373_1336" x="-8.99714" y="-8.99714" width="41.9943" height="41.9943" filterUnits="userSpaceOnUse" color-interpolation-filters="sRGB">
<feFlood flood-opacity="0" result="BackgroundImageFix"/>
<feGaussianBlur in="BackgroundImageFix" stdDeviation="4.49857"/>
<feComposite in2="SourceAlpha" operator="in" result="effect1_backgroundBlur_373_1336"/>
<feBlend mode="normal" in="SourceGraphic" in2="effect1_backgroundBlur_373_1336" result="shape"/>
</filter>
<clipPath id="clip0_373_1336">
<rect width="10" height="10" fill="white" transform="translate(7 7)"/>
</clipPath>
</defs>
</svg>
