<svg width="18" height="18" viewBox="0 0 18 18" fill="none" xmlns="http://www.w3.org/2000/svg">
<path d="M8.99871 7.51657C8.80194 7.51657 8.61322 7.59474 8.47408 7.73388C8.33494 7.87302 8.25677 8.06173 8.25677 8.25851V12.7101C8.25677 12.9069 8.33494 13.0956 8.47408 13.2347C8.61322 13.3739 8.80194 13.4521 8.99871 13.4521C9.19548 13.4521 9.3842 13.3739 9.52334 13.2347C9.66248 13.0956 9.74064 12.9069 9.74064 12.7101V8.25851C9.74064 8.06173 9.66248 7.87302 9.52334 7.73388C9.3842 7.59474 9.19548 7.51657 8.99871 7.51657ZM8.99871 4.54883C8.81528 4.54883 8.63598 4.60322 8.48346 4.70513C8.33095 4.80703 8.21208 4.95188 8.14189 5.12134C8.07169 5.2908 8.05332 5.47728 8.08911 5.65718C8.12489 5.83708 8.21322 6.00233 8.34292 6.13203C8.47263 6.26173 8.63788 6.35006 8.81778 6.38585C8.99768 6.42163 9.18415 6.40327 9.35362 6.33307C9.52308 6.26288 9.66792 6.14401 9.76983 5.99149C9.87174 5.83898 9.92613 5.65967 9.92613 5.47625C9.92613 5.23028 9.82842 4.99439 9.65449 4.82046C9.48057 4.64654 9.24468 4.54883 8.99871 4.54883Z" fill="white"/>
</svg>
