<svg width="11" height="12" viewBox="0 0 11 12" fill="none" xmlns="http://www.w3.org/2000/svg">
<path d="M10.0458 6.7655C9.94137 6.66096 9.81732 6.57803 9.68078 6.52145C9.54424 6.46486 9.39789 6.43574 9.2501 6.43574C9.1023 6.43574 8.95595 6.46486 8.81941 6.52145C8.68287 6.57803 8.55882 6.66096 8.45435 6.7655L6.6251 8.59475V2C6.6251 1.70163 6.50657 1.41548 6.29559 1.2045C6.08461 0.993526 5.79846 0.875 5.5001 0.875C5.20173 0.875 4.91558 0.993526 4.7046 1.2045C4.49362 1.41548 4.3751 1.70163 4.3751 2V8.59475L2.54585 6.7655C2.3349 6.55445 2.04875 6.43585 1.75036 6.43578C1.45197 6.43571 1.16577 6.55418 0.95472 6.76513C0.743674 6.97607 0.62507 7.26222 0.625 7.56061C0.62493 7.859 0.743399 8.14521 0.954345 8.35625L3.64385 11.0458C3.8876 11.2895 4.17699 11.4829 4.49549 11.6148C4.81399 11.7468 5.15535 11.8147 5.5001 11.8147C5.84484 11.8147 6.1862 11.7468 6.5047 11.6148C6.8232 11.4829 7.11259 11.2895 7.35635 11.0458L10.0458 8.35625C10.2568 8.14528 10.3752 7.85919 10.3752 7.56088C10.3752 7.26257 10.2568 6.97647 10.0458 6.7655V6.7655Z" fill="white"/>
</svg>
