<svg width="10" height="6" viewBox="0 0 10 6" fill="none" xmlns="http://www.w3.org/2000/svg">
<path d="M5.23609 3.69587C5.20512 3.72691 5.16834 3.75154 5.12784 3.76835C5.08734 3.78515 5.04393 3.7938 5.00009 3.7938C4.95624 3.7938 4.91283 3.78515 4.87233 3.76835C4.83183 3.75154 4.79505 3.72691 4.76409 3.69587L1.70742 0.638544C1.51991 0.450947 1.26556 0.345522 1.00032 0.34546C0.735081 0.345397 0.480681 0.450703 0.293085 0.63821C0.105488 0.825718 6.25419e-05 1.08007 2.78174e-08 1.34531C-6.24863e-05 1.61055 0.105243 1.86495 0.292751 2.05254L3.35008 5.10987C3.78811 5.54669 4.38148 5.79199 5.00009 5.79199C5.61869 5.79199 6.21206 5.54669 6.65009 5.10987L9.70742 2.05254C9.89493 1.86495 10.0002 1.61055 10.0002 1.34531C10.0001 1.08007 9.89468 0.825718 9.70709 0.63821C9.51949 0.450703 9.26509 0.345397 8.99985 0.34546C8.73461 0.345522 8.48026 0.450947 8.29275 0.638544L5.23609 3.69587Z" fill="white"/>
</svg>
