<svg width="135" height="134" viewBox="0 0 135 134" fill="none" xmlns="http://www.w3.org/2000/svg">
<circle cx="68" cy="67.5" r="46.5" fill="#E33629"/>
<circle cx="68" cy="67.5" r="56.5" fill="#E33629" fill-opacity="0.3"/>
<circle cx="67.5" cy="67" r="67" fill="#E33629" fill-opacity="0.1"/>
<g clip-path="url(#clip0_587_8489)">
<path d="M70.2733 52.5088L85.3828 78.6783C85.6132 79.0773 85.7345 79.53 85.7345 79.9908C85.7345 80.4515 85.6132 80.9042 85.3828 81.3033C85.1524 81.7023 84.8211 82.0337 84.422 82.2641C84.023 82.4945 83.5703 82.6158 83.1096 82.6158H52.8906C52.4298 82.6158 51.9771 82.4945 51.5781 82.2641C51.179 82.0337 50.8477 81.7023 50.6173 81.3033C50.3869 80.9042 50.2656 80.4515 50.2656 79.9908C50.2656 79.53 50.3869 79.0773 50.6173 78.6783L65.7268 52.5088C66.7366 50.7588 69.2618 50.7588 70.2733 52.5088ZM68.0001 55.5713L54.4061 79.1158H81.5941L68.0001 55.5713ZM68.0001 73.2498C68.4642 73.2498 68.9093 73.4342 69.2375 73.7624C69.5657 74.0905 69.7501 74.5357 69.7501 74.9998C69.7501 75.4639 69.5657 75.909 69.2375 76.2372C68.9093 76.5654 68.4642 76.7498 68.0001 76.7498C67.5359 76.7498 67.0908 76.5654 66.7626 76.2372C66.4344 75.909 66.2501 75.4639 66.2501 74.9998C66.2501 74.5357 66.4344 74.0905 66.7626 73.7624C67.0908 73.4342 67.5359 73.2498 68.0001 73.2498ZM68.0001 60.9998C68.4642 60.9998 68.9093 61.1842 69.2375 61.5124C69.5657 61.8405 69.7501 62.2857 69.7501 62.7498V69.7498C69.7501 70.2139 69.5657 70.659 69.2375 70.9872C68.9093 71.3154 68.4642 71.4998 68.0001 71.4998C67.5359 71.4998 67.0908 71.3154 66.7626 70.9872C66.4344 70.659 66.2501 70.2139 66.2501 69.7498V62.7498C66.2501 62.2857 66.4344 61.8405 66.7626 61.5124C67.0908 61.1842 67.5359 60.9998 68.0001 60.9998Z" fill="white"/>
</g>
<defs>
<clipPath id="clip0_587_8489">
<rect width="42" height="42" fill="white" transform="translate(47 47)"/>
</clipPath>
</defs>
</svg>
