<svg width="13" height="14" viewBox="0 0 13 14" fill="none" xmlns="http://www.w3.org/2000/svg">
<path d="M10.5837 4.914V4.08333C10.5837 3.00037 10.1535 1.96175 9.38768 1.19598C8.6219 0.430207 7.58329 0 6.50033 0C5.41736 0 4.37875 0.430207 3.61297 1.19598C2.8472 1.96175 2.41699 3.00037 2.41699 4.08333V4.914C1.89745 5.14074 1.45525 5.51397 1.14445 5.98804C0.833654 6.46211 0.667738 7.01647 0.666992 7.58333V11.0833C0.667918 11.8566 0.975507 12.5979 1.52229 13.1447C2.06907 13.6915 2.8104 13.9991 3.58366 14H9.41699C10.1903 13.9991 10.9316 13.6915 11.4784 13.1447C12.0251 12.5979 12.3327 11.8566 12.3337 11.0833V7.58333C12.3329 7.01647 12.167 6.46211 11.8562 5.98804C11.5454 5.51397 11.1032 5.14074 10.5837 4.914ZM3.58366 4.08333C3.58366 3.30979 3.89095 2.56792 4.43793 2.02094C4.98491 1.47396 5.72678 1.16667 6.50033 1.16667C7.27387 1.16667 8.01574 1.47396 8.56272 2.02094C9.1097 2.56792 9.41699 3.30979 9.41699 4.08333V4.66667H3.58366V4.08333ZM11.167 11.0833C11.167 11.5475 10.9826 11.9926 10.6544 12.3208C10.3262 12.649 9.88112 12.8333 9.41699 12.8333H3.58366C3.11953 12.8333 2.67441 12.649 2.34622 12.3208C2.01803 11.9926 1.83366 11.5475 1.83366 11.0833V7.58333C1.83366 7.1192 2.01803 6.67408 2.34622 6.3459C2.67441 6.01771 3.11953 5.83333 3.58366 5.83333H9.41699C9.88112 5.83333 10.3262 6.01771 10.6544 6.3459C10.9826 6.67408 11.167 7.1192 11.167 7.58333V11.0833Z" fill="white"/>
</svg>
