<svg width="11" height="10" viewBox="0 0 11 10" fill="none" xmlns="http://www.w3.org/2000/svg">
<path d="M11 4.99602C10.9964 4.60144 10.8374 4.22419 10.5575 3.94602L7.34 0.721024C7.19948 0.581336 7.00939 0.50293 6.81125 0.50293C6.61311 0.50293 6.42302 0.581336 6.2825 0.721024C6.2122 0.790746 6.15641 0.873697 6.11833 0.965091C6.08026 1.05649 6.06065 1.15451 6.06065 1.25352C6.06065 1.35253 6.08026 1.45056 6.11833 1.54196C6.15641 1.63335 6.2122 1.7163 6.2825 1.78602L8.75 4.24602H1.25C1.05109 4.24602 0.860322 4.32504 0.71967 4.46569C0.579018 4.60634 0.5 4.79711 0.5 4.99602C0.5 5.19493 0.579018 5.3857 0.71967 5.52635C0.860322 5.667 1.05109 5.74602 1.25 5.74602H8.75L6.2825 8.21352C6.14127 8.35375 6.06154 8.54434 6.06083 8.74336C6.06013 8.94239 6.13852 9.13354 6.27875 9.27477C6.41898 9.41599 6.60958 9.49573 6.8086 9.49643C7.00762 9.49714 7.19877 9.41875 7.34 9.27851L10.5575 6.05352C10.8392 5.77351 10.9983 5.3932 11 4.99602Z" fill="#F4F4F4" fill-opacity="0.7"/>
</svg>
