<svg width="13" height="9" viewBox="0 0 13 9" fill="none" xmlns="http://www.w3.org/2000/svg">
<path d="M6.66718 9C6.41189 8.99871 6.16009 8.94061 5.93004 8.82991C5.7 8.71922 5.49748 8.5587 5.33718 8.36L1.12718 3.26C0.881178 2.95297 0.726369 2.583 0.680401 2.19227C0.634432 1.80153 0.699151 1.40574 0.867183 1.05C1.00346 0.740826 1.22586 0.477413 1.5078 0.291223C1.78975 0.105032 2.11933 0.00393305 2.45718 0H10.8772C11.215 0.00393305 11.5446 0.105032 11.8266 0.291223C12.1085 0.477413 12.3309 0.740826 12.4672 1.05C12.6352 1.40574 12.6999 1.80153 12.654 2.19227C12.608 2.583 12.4532 2.95297 12.2072 3.26L7.99718 8.36C7.83689 8.5587 7.63437 8.71922 7.40432 8.82991C7.17428 8.94061 6.92247 8.99871 6.66718 9Z" fill="#E7E7E7"/>
</svg>
