<svg width="14" height="14" viewBox="0 0 14 14" fill="none" xmlns="http://www.w3.org/2000/svg">
<path d="M13.3872 5.60025C13.2778 5.49089 13.1295 5.42945 12.9748 5.42945C12.8201 5.42945 12.6718 5.49089 12.5624 5.60025L6.20871 11.9816C5.93787 12.2525 5.61634 12.4674 5.26246 12.614C4.90858 12.7606 4.52929 12.8361 4.14625 12.8361C3.37265 12.8362 2.63072 12.5289 2.08367 11.9819C1.53661 11.4349 1.22925 10.693 1.2292 9.91934C1.22914 9.14572 1.5364 8.40375 2.08337 7.85668L8.23696 1.67776C8.56601 1.35393 9.00969 1.17326 9.47134 1.17508C9.933 1.17691 10.3752 1.36109 10.7017 1.68751C11.0282 2.01392 11.2125 2.45613 11.2144 2.91781C11.2163 3.37948 11.0358 3.82322 10.712 4.15236L4.55846 10.3313C4.44748 10.4376 4.29973 10.497 4.14604 10.497C3.99235 10.497 3.8446 10.4376 3.73362 10.3313C3.62427 10.2219 3.56283 10.0735 3.56283 9.91885C3.56283 9.76416 3.62427 9.61581 3.73362 9.50641L9.21229 4.00244C9.31855 3.89242 9.37735 3.74506 9.37602 3.5921C9.37469 3.43915 9.31334 3.29284 9.20519 3.18468C9.09703 3.07652 8.95072 3.01517 8.79778 3.01384C8.64483 3.01251 8.49748 3.07131 8.38746 3.17757L2.90879 8.68155C2.74626 8.84406 2.61733 9.037 2.52936 9.24935C2.4414 9.46169 2.39612 9.68929 2.39612 9.91914C2.39612 10.149 2.4414 10.3766 2.52936 10.5889C2.61733 10.8013 2.74626 10.9942 2.90879 11.1567C3.24224 11.4749 3.68543 11.6525 4.14633 11.6525C4.60724 11.6525 5.05043 11.4749 5.38387 11.1567L11.5369 4.97723C12.0724 4.42788 12.3699 3.68967 12.365 2.92251C12.3601 2.15535 12.0531 1.42101 11.5106 0.878575C10.9681 0.336137 10.2338 0.0292782 9.46664 0.0244714C8.69951 0.0196646 7.96137 0.317297 7.41212 0.852894L1.25854 7.03181C0.492729 7.79766 0.0625 8.83636 0.0625 9.91943C0.0625 11.0025 0.492729 12.0412 1.25854 12.807C2.02435 13.5729 3.06302 14.0031 4.14604 14.0031C5.22906 14.0031 6.26773 13.5729 7.03354 12.807L13.3872 6.42745C13.4417 6.37324 13.485 6.3088 13.5145 6.23782C13.544 6.16684 13.5592 6.09072 13.5592 6.01385C13.5592 5.93698 13.544 5.86087 13.5145 5.78989C13.485 5.71891 13.4417 5.65446 13.3872 5.60025Z" fill="white"/>
</svg>
