<svg width="15" height="14" viewBox="0 0 15 14" fill="none" xmlns="http://www.w3.org/2000/svg">
<path d="M7.94824 2.33333C7.79353 2.33333 7.64516 2.27188 7.53576 2.16248C7.42637 2.05308 7.36491 1.90471 7.36491 1.75V0.583333C7.36491 0.428624 7.42637 0.280251 7.53576 0.170854C7.64516 0.0614582 7.79353 0 7.94824 0C8.10295 0 8.25132 0.0614582 8.36072 0.170854C8.47012 0.280251 8.53158 0.428624 8.53158 0.583333V1.75C8.53158 1.90471 8.47012 2.05308 8.36072 2.16248C8.25132 2.27188 8.10295 2.33333 7.94824 2.33333ZM8.53158 13.4167V12.25C8.53158 12.0953 8.47012 11.9469 8.36072 11.8375C8.25132 11.7281 8.10295 11.6667 7.94824 11.6667C7.79353 11.6667 7.64516 11.7281 7.53576 11.8375C7.42637 11.9469 7.36491 12.0953 7.36491 12.25V13.4167C7.36491 13.5714 7.42637 13.7197 7.53576 13.8291C7.64516 13.9385 7.79353 14 7.94824 14C8.10295 14 8.25132 13.9385 8.36072 13.8291C8.47012 13.7197 8.53158 13.5714 8.53158 13.4167ZM3.28158 7C3.28158 6.84529 3.22012 6.69692 3.11072 6.58752C3.00132 6.47812 2.85295 6.41667 2.69824 6.41667H1.53158C1.37687 6.41667 1.22849 6.47812 1.1191 6.58752C1.0097 6.69692 0.948242 6.84529 0.948242 7C0.948242 7.15471 1.0097 7.30308 1.1191 7.41248C1.22849 7.52187 1.37687 7.58333 1.53158 7.58333H2.69824C2.85295 7.58333 3.00132 7.52187 3.11072 7.41248C3.22012 7.30308 3.28158 7.15471 3.28158 7ZM14.9482 7C14.9482 6.84529 14.8868 6.69692 14.7774 6.58752C14.668 6.47812 14.5196 6.41667 14.3649 6.41667H13.1982C13.0435 6.41667 12.8952 6.47812 12.7858 6.58752C12.6764 6.69692 12.6149 6.84529 12.6149 7C12.6149 7.15471 12.6764 7.30308 12.7858 7.41248C12.8952 7.52187 13.0435 7.58333 13.1982 7.58333H14.3649C14.5196 7.58333 14.668 7.52187 14.7774 7.41248C14.8868 7.30308 14.9482 7.15471 14.9482 7ZM11.086 2.75042L11.6693 1.74067C11.7412 1.60711 11.7582 1.45082 11.7168 1.30492C11.6754 1.15903 11.5788 1.035 11.4474 0.95913C11.3161 0.883264 11.1604 0.861527 11.0133 0.898528C10.8663 0.935528 10.7394 1.02836 10.6596 1.15733L10.0762 2.16708C9.99884 2.30099 9.97779 2.46016 10.0177 2.60958C10.0576 2.75901 10.1553 2.88646 10.2892 2.96392C10.3776 3.01566 10.4783 3.04285 10.5808 3.04267C10.6833 3.0426 10.7839 3.01556 10.8726 2.96426C10.9613 2.91295 11.0349 2.8392 11.086 2.75042ZM5.23516 12.8421L5.81849 11.8323C5.89036 11.6988 5.90739 11.5425 5.86597 11.3966C5.82455 11.2507 5.72794 11.1267 5.59662 11.0508C5.46529 10.9749 5.30958 10.9532 5.1625 10.9902C5.01542 11.0272 4.88853 11.12 4.80874 11.249L4.22541 12.2587C4.14796 12.3926 4.12682 12.5517 4.16664 12.7011C4.20645 12.8505 4.30396 12.978 4.43774 13.0556C4.52624 13.1073 4.62692 13.1345 4.72941 13.1343C4.83179 13.1346 4.93242 13.1078 5.0212 13.0568C5.10997 13.0058 5.18376 12.9324 5.23516 12.8438V12.8421ZM3.91099 4.65908C3.98844 4.52525 4.00958 4.36613 3.96976 4.21671C3.92995 4.0673 3.83244 3.9398 3.69866 3.86225L2.68891 3.27892C2.55536 3.20705 2.39906 3.19002 2.25317 3.23144C2.10727 3.27286 1.98324 3.36947 1.90737 3.50079C1.83151 3.63212 1.80977 3.78783 1.84677 3.93491C1.88377 4.08199 1.9766 4.20887 2.10558 4.28867L3.11533 4.872C3.24923 4.9494 3.4084 4.97045 3.55783 4.93052C3.70725 4.8906 3.8347 4.79296 3.91216 4.65908H3.91099ZM14.0027 10.5105C14.0411 10.4442 14.0661 10.371 14.0762 10.295C14.0864 10.2191 14.0814 10.1418 14.0617 10.0678C14.042 9.99374 14.0079 9.9243 13.9613 9.86344C13.9147 9.80258 13.8566 9.75148 13.7903 9.71308L12.7806 9.12975C12.647 9.05788 12.4907 9.04085 12.3448 9.08227C12.1989 9.12369 12.0749 9.2203 11.999 9.35163C11.9232 9.48295 11.9014 9.63866 11.9384 9.78574C11.9754 9.93282 12.0683 10.0597 12.1972 10.1395L13.207 10.7228C13.2955 10.7746 13.3962 10.8018 13.4987 10.8016C13.6011 10.8017 13.7018 10.7749 13.7905 10.7238C13.8793 10.6727 13.9531 10.5992 14.0044 10.5105H14.0027ZM5.60733 2.96275C5.7412 2.8853 5.83884 2.75784 5.87877 2.60842C5.91869 2.45899 5.89764 2.29983 5.82024 2.16592L5.23691 1.15617C5.15712 1.02719 5.03023 0.934362 4.88315 0.897361C4.73607 0.86036 4.58036 0.882098 4.44904 0.957964C4.31771 1.03383 4.2211 1.15786 4.17968 1.30376C4.13826 1.44965 4.15529 1.60595 4.22716 1.7395L4.81049 2.74925C4.86169 2.83793 4.93533 2.91156 5.024 2.96276C5.11268 3.01396 5.21326 3.04091 5.31566 3.04092C5.4181 3.04127 5.51879 3.01429 5.60733 2.96275ZM11.4587 13.0544C11.5925 12.9769 11.69 12.8494 11.7298 12.7C11.7697 12.5505 11.7485 12.3914 11.6711 12.2576L11.0877 11.2478C11.0079 11.1189 10.8811 11.026 10.734 10.989C10.5869 10.952 10.4312 10.9738 10.2999 11.0496C10.1685 11.1255 10.0719 11.2495 10.0305 11.3954C9.98909 11.5413 10.0061 11.6976 10.078 11.8312L10.6613 12.8409C10.6997 12.9072 10.7508 12.9653 10.8117 13.0119C10.8725 13.0585 10.942 13.0926 11.016 13.1123C11.0901 13.132 11.1673 13.137 11.2433 13.1268C11.3192 13.1167 11.3924 13.0917 11.4587 13.0533V13.0544ZM12.7823 4.87025L13.7921 4.28692C13.9211 4.20712 14.0139 4.08024 14.0509 3.93316C14.0879 3.78608 14.0661 3.63037 13.9903 3.49904C13.9144 3.36772 13.7904 3.27111 13.6445 3.22969C13.4986 3.18827 13.3423 3.2053 13.2087 3.27717L12.199 3.8605C12.07 3.94029 11.9772 4.06718 11.9402 4.21426C11.9032 4.36134 11.9249 4.51705 12.0008 4.64837C12.0767 4.7797 12.2007 4.87631 12.3466 4.91773C12.4925 4.95915 12.6488 4.94212 12.7823 4.87025ZM2.69066 10.7211L3.70041 10.1377C3.82938 10.058 3.92221 9.93107 3.95921 9.78399C3.99622 9.63691 3.97448 9.4812 3.89861 9.34988C3.82275 9.21855 3.69872 9.12194 3.55282 9.08052C3.40692 9.0391 3.25063 9.05613 3.11708 9.128L2.10733 9.71133C1.99613 9.77554 1.90922 9.87465 1.86008 9.99328C1.81095 10.1119 1.80233 10.2434 1.83556 10.3675C1.8688 10.4915 1.94203 10.6011 2.0439 10.6793C2.14577 10.7575 2.27059 10.7998 2.39899 10.7998C2.50074 10.8002 2.60077 10.7737 2.68891 10.7228L2.69066 10.7211Z" fill="white"/>
</svg>
