<svg width="11" height="22" viewBox="0 0 11 22" fill="none" xmlns="http://www.w3.org/2000/svg">
<path d="M8.54096 20.9363L8.54024 20.9356L1.73213 14.1275C1.73206 14.1274 1.73198 14.1273 1.73191 14.1272C1.32071 13.717 0.994455 13.2297 0.771838 12.6932C0.549181 12.1566 0.43457 11.5814 0.43457 11.0005C0.43457 10.4195 0.549181 9.84429 0.771838 9.30771C0.994469 8.77119 1.32075 8.28386 1.73199 7.87362C1.73204 7.87357 1.73208 7.87352 1.73213 7.87347L8.54024 1.06537L8.69777 1.2229L8.54024 1.06537C8.64116 0.964456 8.76096 0.884407 8.89281 0.829793C9.02466 0.77518 9.16597 0.74707 9.30869 0.74707C9.4514 0.74707 9.59271 0.77518 9.72456 0.829794C9.85641 0.884408 9.97621 0.964457 10.0771 1.06537C10.178 1.16628 10.2581 1.28608 10.3127 1.41794C10.3673 1.54978 10.3954 1.6911 10.3954 1.83381C10.3954 1.97652 10.3673 2.11784 10.3127 2.24969C10.2581 2.38154 10.178 2.50134 10.0771 2.60226L3.2689 9.41047C2.84755 9.83235 2.61088 10.4042 2.61088 11.0005C2.61088 11.5967 2.84751 12.1685 3.2688 12.5904L8.54096 20.9363ZM8.54096 20.9363C8.64219 21.0367 8.76224 21.1161 8.89423 21.17C9.02577 21.2238 9.1666 21.2511 9.30869 21.2505M8.54096 20.9363L3.26891 12.5905L10.0764 19.398C10.0765 19.3981 10.0766 19.3982 10.0768 19.3983C10.1781 19.499 10.2586 19.6186 10.3135 19.7505C10.3685 19.8825 10.3969 20.0241 10.3969 20.1671C10.3969 20.3101 10.3685 20.4517 10.3135 20.5837C10.2585 20.7158 10.1779 20.8356 10.0764 20.9363C9.97518 21.0367 9.85513 21.1161 9.72314 21.17C9.5916 21.2238 9.45077 21.2511 9.30869 21.2505M9.30869 21.2505C9.3082 21.2505 9.30772 21.2505 9.30724 21.2505L9.30869 21.0005L9.31013 21.2505C9.30965 21.2505 9.30917 21.2505 9.30869 21.2505Z" fill="white" stroke="white" stroke-width="0.5"/>
</svg>
