<svg width="10" height="10" viewBox="0 0 10 10" fill="none" xmlns="http://www.w3.org/2000/svg">
<path d="M8.95833 10.0003H1.04167C0.904873 10.0003 0.769419 9.97338 0.643038 9.92103C0.516657 9.86868 0.401825 9.79196 0.305097 9.69523C0.208369 9.5985 0.131641 9.48367 0.0792922 9.35729C0.0269435 9.23091 0 9.09545 0 8.95866C0 8.68239 0.109747 8.41744 0.305097 8.22209C0.500447 8.02674 0.765399 7.91699 1.04167 7.91699H8.95833C9.09513 7.91699 9.23058 7.94394 9.35696 7.99628C9.48334 8.04863 9.59817 8.12536 9.6949 8.22209C9.79163 8.31882 9.86836 8.43365 9.92071 8.56003C9.97306 8.68641 10 8.82187 10 8.95866C10 9.09545 9.97306 9.23091 9.92071 9.35729C9.86836 9.48367 9.79163 9.5985 9.6949 9.69523C9.59817 9.79196 9.48334 9.86868 9.35696 9.92103C9.23058 9.97338 9.09513 10.0003 8.95833 10.0003V10.0003ZM10 5.83366C10 5.61264 9.9122 5.40068 9.75592 5.2444C9.59964 5.08812 9.38768 5.00033 9.16667 5.00033H0.833333C0.61232 5.00033 0.400358 5.08812 0.244078 5.2444C0.0877974 5.40068 0 5.61264 0 5.83366C0 6.05467 0.0877974 6.26663 0.244078 6.42291C0.400358 6.57919 0.61232 6.66699 0.833333 6.66699H9.16667C9.38768 6.66699 9.59964 6.57919 9.75592 6.42291C9.9122 6.26663 10 6.05467 10 5.83366ZM10 3.12533C10 2.95957 9.93415 2.80059 9.81694 2.68338C9.69973 2.56617 9.54076 2.50033 9.375 2.50033H0.625C0.45924 2.50033 0.300268 2.56617 0.183058 2.68338C0.065848 2.80059 0 2.95957 0 3.12533C0 3.29109 0.065848 3.45006 0.183058 3.56727C0.300268 3.68448 0.45924 3.75033 0.625 3.75033H9.375C9.54076 3.75033 9.69973 3.68448 9.81694 3.56727C9.93415 3.45006 10 3.29109 10 3.12533V3.12533ZM10 0.833659C10 0.723152 9.9561 0.617171 9.87796 0.539031C9.79982 0.460891 9.69384 0.416992 9.58333 0.416992H0.416667C0.30616 0.416992 0.200179 0.460891 0.122039 0.539031C0.0438987 0.617171 0 0.723152 0 0.833659C0 0.944166 0.0438987 1.05015 0.122039 1.12829C0.200179 1.20643 0.30616 1.25033 0.416667 1.25033H9.58333C9.69384 1.25033 9.79982 1.20643 9.87796 1.12829C9.9561 1.05015 10 0.944166 10 0.833659Z" fill="#F4F4F4" fill-opacity="0.7"/>
</svg>
