<svg width="123" height="15" viewBox="0 0 123 15" fill="none" xmlns="http://www.w3.org/2000/svg">
<path d="M7.93182 14.3636C6.77273 14.3636 5.74811 14.2045 4.85795 13.8864C3.9678 13.572 3.2197 13.108 2.61364 12.4943C2.00758 11.8807 1.54924 11.1288 1.23864 10.2386C0.92803 9.34848 0.772727 8.32955 0.772727 7.18182C0.772727 6.07197 0.929924 5.07955 1.24432 4.20455C1.5625 3.32955 2.02273 2.58712 2.625 1.97727C3.23106 1.36364 3.96591 0.895833 4.82955 0.573863C5.69697 0.251894 6.67803 0.090909 7.77273 0.090909C8.83712 0.090909 9.76894 0.265151 10.5682 0.613636C11.3712 0.958333 12.0417 1.42614 12.5795 2.01705C13.1212 2.60417 13.5265 3.26515 13.7955 4C14.0682 4.73485 14.2045 5.49242 14.2045 6.27273C14.2045 6.82197 14.178 7.37879 14.125 7.94318C14.072 8.50758 13.9602 9.02652 13.7898 9.5C13.6193 9.9697 13.3561 10.3485 13 10.6364C12.6477 10.9242 12.1705 11.0682 11.5682 11.0682C11.303 11.0682 11.0114 11.0265 10.6932 10.9432C10.375 10.8598 10.0928 10.7216 9.84659 10.5284C9.60038 10.3352 9.45455 10.0758 9.40909 9.75H9.34091C9.25 9.9697 9.10985 10.178 8.92045 10.375C8.73485 10.572 8.49053 10.7292 8.1875 10.8466C7.88826 10.964 7.52273 11.0152 7.09091 11C6.59849 10.9811 6.16477 10.8712 5.78977 10.6705C5.41477 10.4659 5.10038 10.1894 4.84659 9.84091C4.59659 9.48864 4.4072 9.08144 4.27841 8.61932C4.15341 8.15341 4.09091 7.65152 4.09091 7.11364C4.09091 6.60227 4.16667 6.13447 4.31818 5.71023C4.4697 5.28598 4.67992 4.91477 4.94886 4.59659C5.22159 4.27841 5.53977 4.02462 5.90341 3.83523C6.27083 3.64205 6.66667 3.52273 7.09091 3.47727C7.4697 3.43939 7.81439 3.45644 8.125 3.52841C8.43561 3.59659 8.69129 3.70076 8.89205 3.84091C9.0928 3.97727 9.2197 4.12879 9.27273 4.29545H9.34091V3.65909H10.5455V8.79545C10.5455 9.11364 10.6345 9.39394 10.8125 9.63636C10.9905 9.87879 11.25 10 11.5909 10C11.9773 10 12.2727 9.86742 12.4773 9.60227C12.6856 9.33712 12.8277 8.92803 12.9034 8.375C12.983 7.82197 13.0227 7.11364 13.0227 6.25C13.0227 5.74242 12.9527 5.24242 12.8125 4.75C12.6761 4.25379 12.4678 3.78977 12.1875 3.35795C11.911 2.92614 11.5606 2.54545 11.1364 2.21591C10.7121 1.88636 10.214 1.62879 9.64205 1.44318C9.07386 1.25379 8.42803 1.15909 7.70455 1.15909C6.81439 1.15909 6.01705 1.29735 5.3125 1.57386C4.61174 1.84659 4.01515 2.24621 3.52273 2.77273C3.03409 3.29545 2.66098 3.93182 2.40341 4.68182C2.14962 5.42803 2.02273 6.27651 2.02273 7.22727C2.02273 8.19318 2.14962 9.05114 2.40341 9.80114C2.66098 10.5511 3.03977 11.1837 3.53977 11.6989C4.04356 12.214 4.66667 12.6061 5.40909 12.875C6.15152 13.1402 7.00758 13.2727 7.97727 13.2727C8.39394 13.2727 8.80492 13.233 9.21023 13.1534C9.61553 13.0739 9.97348 12.9867 10.2841 12.892C10.5947 12.7973 10.8182 12.7273 10.9545 12.6818L11.2727 13.7273C11.0379 13.8258 10.7311 13.9242 10.3523 14.0227C9.97727 14.1212 9.57576 14.2027 9.14773 14.267C8.72349 14.3314 8.31818 14.3636 7.93182 14.3636ZM7.27273 9.84091C7.7803 9.84091 8.19129 9.73864 8.50568 9.53409C8.82008 9.32955 9.04924 9.02083 9.19318 8.60795C9.33712 8.19508 9.40909 7.67424 9.40909 7.04545C9.40909 6.40909 9.32955 5.91288 9.17045 5.55682C9.01136 5.20076 8.77652 4.95076 8.46591 4.80682C8.1553 4.66288 7.77273 4.59091 7.31818 4.59091C6.88636 4.59091 6.51705 4.70455 6.21023 4.93182C5.9072 5.1553 5.67424 5.45455 5.51136 5.82955C5.35227 6.20076 5.27273 6.60606 5.27273 7.04545C5.27273 7.5303 5.33712 7.98674 5.46591 8.41477C5.5947 8.83902 5.80492 9.18371 6.09659 9.44886C6.38826 9.71023 6.7803 9.84091 7.27273 9.84091Z" fill="url(#paint0_linear_1714_7680)"/>
<path d="M25.348 1.36364H26.7571V9.68182C26.7571 10.4242 26.6207 11.0549 26.348 11.5739C26.0753 12.0928 25.6908 12.4867 25.1946 12.7557C24.6984 13.0246 24.1132 13.1591 23.4389 13.1591C22.8026 13.1591 22.2363 13.0436 21.7401 12.8125C21.2438 12.5777 20.8537 12.2443 20.5696 11.8125C20.2855 11.3807 20.1435 10.8674 20.1435 10.2727H21.5298C21.5298 10.6023 21.6113 10.8902 21.7741 11.1364C21.9408 11.3788 22.1681 11.5682 22.456 11.7045C22.7438 11.8409 23.0715 11.9091 23.4389 11.9091C23.8442 11.9091 24.1889 11.8239 24.473 11.6534C24.7571 11.483 24.973 11.233 25.1207 10.9034C25.2723 10.5701 25.348 10.1629 25.348 9.68182V1.36364ZM34.8991 9.43182V4.27273H36.2401V13H34.8991V11.5227H34.8082C34.6037 11.9659 34.2855 12.3428 33.8537 12.6534C33.4219 12.9602 32.8764 13.1136 32.2173 13.1136C31.6719 13.1136 31.187 12.9943 30.7628 12.7557C30.3385 12.5133 30.0052 12.1496 29.7628 11.6648C29.5204 11.1761 29.3991 10.5606 29.3991 9.81818V4.27273H30.7401V9.72727C30.7401 10.3636 30.9181 10.8712 31.2741 11.25C31.634 11.6288 32.0923 11.8182 32.6491 11.8182C32.9825 11.8182 33.3215 11.733 33.6662 11.5625C34.0147 11.392 34.3063 11.1307 34.5412 10.7784C34.7798 10.4261 34.8991 9.97727 34.8991 9.43182ZM44.8778 6.22727L43.6733 6.56818C43.5975 6.36742 43.4858 6.17235 43.3381 5.98295C43.1941 5.78977 42.9972 5.63068 42.7472 5.50568C42.4972 5.38068 42.1771 5.31818 41.7869 5.31818C41.2528 5.31818 40.8078 5.44129 40.4517 5.6875C40.0994 5.92992 39.9233 6.23864 39.9233 6.61364C39.9233 6.94697 40.0445 7.21023 40.2869 7.40341C40.5294 7.59659 40.9081 7.75758 41.4233 7.88636L42.7188 8.20455C43.4991 8.39394 44.0805 8.68371 44.4631 9.07386C44.8456 9.46023 45.0369 9.95833 45.0369 10.5682C45.0369 11.0682 44.893 11.5152 44.6051 11.9091C44.321 12.303 43.9233 12.6136 43.4119 12.8409C42.9006 13.0682 42.3059 13.1818 41.6278 13.1818C40.7377 13.1818 40.0009 12.9886 39.4176 12.6023C38.8343 12.2159 38.465 11.6515 38.3097 10.9091L39.5824 10.5909C39.7036 11.0606 39.9328 11.4129 40.2699 11.6477C40.6108 11.8826 41.0559 12 41.6051 12C42.2301 12 42.7263 11.8674 43.0938 11.6023C43.465 11.3333 43.6506 11.0114 43.6506 10.6364C43.6506 10.3333 43.5445 10.0795 43.3324 9.875C43.1203 9.66667 42.7945 9.51136 42.3551 9.40909L40.9006 9.06818C40.1013 8.87879 39.5142 8.58523 39.1392 8.1875C38.768 7.78598 38.5824 7.28409 38.5824 6.68182C38.5824 6.18939 38.7206 5.75379 38.9972 5.375C39.2775 4.99621 39.6581 4.69886 40.1392 4.48295C40.6241 4.26705 41.1733 4.15909 41.7869 4.15909C42.6506 4.15909 43.3286 4.34848 43.821 4.72727C44.3172 5.10606 44.6695 5.60606 44.8778 6.22727ZM50.8509 4.27273V5.40909H46.3281V4.27273H50.8509ZM47.6463 2.18182H48.9872V10.5C48.9872 10.8788 49.0421 11.1629 49.152 11.3523C49.2656 11.5379 49.4096 11.6629 49.5838 11.7273C49.7618 11.7879 49.9493 11.8182 50.1463 11.8182C50.294 11.8182 50.4152 11.8106 50.5099 11.7955C50.6046 11.7765 50.6804 11.7614 50.7372 11.75L51.0099 12.9545C50.919 12.9886 50.7921 13.0227 50.6293 13.0568C50.4664 13.0947 50.2599 13.1136 50.0099 13.1136C49.6312 13.1136 49.2599 13.0322 48.8963 12.8693C48.5365 12.7064 48.2372 12.4583 47.9986 12.125C47.7637 11.7917 47.6463 11.3712 47.6463 10.8636V2.18182ZM52.8679 13V4.27273H54.2088V13H52.8679ZM53.5497 2.81818C53.2884 2.81818 53.063 2.72917 52.8736 2.55114C52.688 2.37311 52.5952 2.15909 52.5952 1.90909C52.5952 1.65909 52.688 1.44508 52.8736 1.26705C53.063 1.08902 53.2884 1 53.5497 1C53.8111 1 54.0346 1.08902 54.2202 1.26705C54.4096 1.44508 54.5043 1.65909 54.5043 1.90909C54.5043 2.15909 54.4096 2.37311 54.2202 2.55114C54.0346 2.72917 53.8111 2.81818 53.5497 2.81818ZM58.0057 7.75V13H56.6648V4.27273H57.9602V5.63636H58.0739C58.2784 5.19318 58.589 4.83712 59.0057 4.56818C59.4223 4.29545 59.9602 4.15909 60.6193 4.15909C61.2102 4.15909 61.7273 4.2803 62.1705 4.52273C62.6136 4.76136 62.9583 5.125 63.2045 5.61364C63.4508 6.09848 63.5739 6.71212 63.5739 7.45455V13H62.233V7.54545C62.233 6.85985 62.0549 6.32576 61.6989 5.94318C61.3428 5.55682 60.8542 5.36364 60.233 5.36364C59.8049 5.36364 59.4223 5.45644 59.0852 5.64205C58.7519 5.82765 58.4886 6.09848 58.2955 6.45455C58.1023 6.81061 58.0057 7.24242 58.0057 7.75ZM70.706 13V1.36364H74.7741C75.5848 1.36364 76.2533 1.50379 76.7798 1.78409C77.3063 2.06061 77.6984 2.43371 77.956 2.90341C78.2135 3.36932 78.3423 3.88636 78.3423 4.45455C78.3423 4.95455 78.2533 5.36742 78.0753 5.69318C77.901 6.01894 77.67 6.27652 77.3821 6.46591C77.098 6.6553 76.7893 6.79545 76.456 6.88636V7C76.812 7.02273 77.17 7.14773 77.5298 7.375C77.8897 7.60227 78.1908 7.92803 78.4332 8.35227C78.6757 8.77651 78.7969 9.29545 78.7969 9.90909C78.7969 10.4924 78.6643 11.017 78.3991 11.483C78.134 11.9489 77.7154 12.3182 77.1435 12.5909C76.5715 12.8636 75.8272 13 74.9105 13H70.706ZM72.1151 11.75H74.9105C75.831 11.75 76.4844 11.572 76.8707 11.2159C77.2609 10.8561 77.456 10.4205 77.456 9.90909C77.456 9.51515 77.3556 9.15152 77.1548 8.81818C76.9541 8.48106 76.6681 8.21212 76.2969 8.01136C75.9257 7.80682 75.4863 7.70455 74.9787 7.70455H72.1151V11.75ZM72.1151 6.47727H74.7287C75.1529 6.47727 75.5355 6.39394 75.8764 6.22727C76.2211 6.06061 76.4938 5.82576 76.6946 5.52273C76.8991 5.2197 77.0014 4.86364 77.0014 4.45455C77.0014 3.94318 76.8234 3.50947 76.4673 3.15341C76.1113 2.79356 75.5469 2.61364 74.7741 2.61364H72.1151V6.47727ZM83.4986 13.2045C82.9455 13.2045 82.4437 13.1004 81.9929 12.892C81.5421 12.6799 81.1842 12.375 80.919 11.9773C80.6539 11.5758 80.5213 11.0909 80.5213 10.5227C80.5213 10.0227 80.6198 9.61742 80.8168 9.30682C81.0137 8.99242 81.277 8.74621 81.6065 8.56818C81.9361 8.39015 82.2997 8.25758 82.6974 8.17045C83.099 8.07955 83.5024 8.00758 83.9077 7.95455C84.438 7.88636 84.8679 7.83523 85.1974 7.80114C85.5308 7.76326 85.7732 7.70076 85.9247 7.61364C86.08 7.52652 86.1577 7.375 86.1577 7.15909V7.11364C86.1577 6.55303 86.0043 6.11742 85.6974 5.80682C85.3944 5.49621 84.9342 5.34091 84.3168 5.34091C83.6766 5.34091 83.1747 5.48106 82.8111 5.76136C82.4474 6.04167 82.1918 6.34091 82.044 6.65909L80.7713 6.20455C80.9986 5.67424 81.3016 5.26136 81.6804 4.96591C82.063 4.66667 82.4796 4.45833 82.9304 4.34091C83.3849 4.2197 83.8319 4.15909 84.2713 4.15909C84.5516 4.15909 84.8736 4.19318 85.2372 4.26136C85.6046 4.32576 85.9588 4.46023 86.2997 4.66477C86.6444 4.86932 86.9304 5.17803 87.1577 5.59091C87.3849 6.00379 87.4986 6.55682 87.4986 7.25V13H86.1577V11.8182H86.0895C85.9986 12.0076 85.8471 12.2102 85.6349 12.4261C85.4228 12.642 85.1406 12.8258 84.7884 12.9773C84.4361 13.1288 84.0062 13.2045 83.4986 13.2045ZM83.7031 12C84.2334 12 84.6804 11.8958 85.044 11.6875C85.4115 11.4792 85.688 11.2102 85.8736 10.8807C86.063 10.5511 86.1577 10.2045 86.1577 9.84091V8.61364C86.1009 8.68182 85.9759 8.74432 85.7827 8.80114C85.5933 8.85417 85.3736 8.90151 85.1236 8.94318C84.8774 8.98106 84.6368 9.01515 84.402 9.04545C84.1709 9.07197 83.9834 9.0947 83.8395 9.11364C83.491 9.15909 83.1652 9.23295 82.8622 9.33523C82.563 9.43371 82.3205 9.58333 82.1349 9.78409C81.9531 9.98106 81.8622 10.25 81.8622 10.5909C81.8622 11.0568 82.0346 11.4091 82.3793 11.6477C82.7277 11.8826 83.169 12 83.7031 12ZM89.946 13V4.27273H91.2415V5.59091H91.3324C91.4915 5.15909 91.7794 4.80871 92.196 4.53977C92.6127 4.27083 93.0824 4.13636 93.6051 4.13636C93.7036 4.13636 93.8267 4.13826 93.9744 4.14205C94.1222 4.14583 94.2339 4.15152 94.3097 4.15909V5.52273C94.2642 5.51136 94.16 5.49432 93.9972 5.47159C93.8381 5.44508 93.6695 5.43182 93.4915 5.43182C93.0672 5.43182 92.6884 5.52083 92.3551 5.69886C92.0256 5.87311 91.7642 6.11553 91.571 6.42614C91.3816 6.73295 91.2869 7.08333 91.2869 7.47727V13H89.946ZM96.081 13V1.36364H97.4219V5.65909H97.5355C97.634 5.50758 97.7704 5.31439 97.9446 5.07955C98.1226 4.84091 98.3764 4.62879 98.706 4.44318C99.0393 4.25379 99.4901 4.15909 100.058 4.15909C100.793 4.15909 101.441 4.3428 102.001 4.71023C102.562 5.07765 103 5.59848 103.314 6.27273C103.628 6.94697 103.786 7.74242 103.786 8.65909C103.786 9.58333 103.628 10.3845 103.314 11.0625C103 11.7367 102.564 12.2595 102.007 12.6307C101.45 12.9981 100.808 13.1818 100.081 13.1818C99.5204 13.1818 99.0715 13.089 98.7344 12.9034C98.3973 12.714 98.1378 12.5 97.956 12.2614C97.7741 12.0189 97.634 11.8182 97.5355 11.6591H97.3764V13H96.081ZM97.3991 8.63636C97.3991 9.29545 97.4957 9.87689 97.6889 10.3807C97.8821 10.8807 98.1643 11.2727 98.5355 11.5568C98.9067 11.8371 99.3613 11.9773 99.8991 11.9773C100.46 11.9773 100.928 11.8295 101.303 11.5341C101.681 11.2348 101.965 10.8333 102.155 10.3295C102.348 9.82197 102.445 9.25758 102.445 8.63636C102.445 8.02273 102.35 7.4697 102.161 6.97727C101.975 6.48106 101.693 6.08902 101.314 5.80114C100.939 5.50947 100.467 5.36364 99.8991 5.36364C99.3537 5.36364 98.8954 5.50189 98.5241 5.77841C98.1529 6.05114 97.8726 6.43371 97.6832 6.92614C97.4938 7.41477 97.3991 7.98485 97.3991 8.63636ZM109.382 13.1818C108.594 13.1818 107.903 12.9943 107.308 12.6193C106.717 12.2443 106.255 11.7197 105.922 11.0455C105.592 10.3712 105.428 9.58333 105.428 8.68182C105.428 7.77273 105.592 6.97917 105.922 6.30114C106.255 5.62311 106.717 5.09659 107.308 4.72159C107.903 4.34659 108.594 4.15909 109.382 4.15909C110.17 4.15909 110.859 4.34659 111.45 4.72159C112.045 5.09659 112.507 5.62311 112.837 6.30114C113.17 6.97917 113.337 7.77273 113.337 8.68182C113.337 9.58333 113.17 10.3712 112.837 11.0455C112.507 11.7197 112.045 12.2443 111.45 12.6193C110.859 12.9943 110.17 13.1818 109.382 13.1818ZM109.382 11.9773C109.981 11.9773 110.473 11.8239 110.859 11.517C111.246 11.2102 111.532 10.8068 111.717 10.3068C111.903 9.80682 111.996 9.26515 111.996 8.68182C111.996 8.09848 111.903 7.55492 111.717 7.05114C111.532 6.54735 111.246 6.14015 110.859 5.82955C110.473 5.51894 109.981 5.36364 109.382 5.36364C108.784 5.36364 108.291 5.51894 107.905 5.82955C107.518 6.14015 107.232 6.54735 107.047 7.05114C106.861 7.55492 106.768 8.09848 106.768 8.68182C106.768 9.26515 106.861 9.80682 107.047 10.3068C107.232 10.8068 107.518 11.2102 107.905 11.517C108.291 11.8239 108.784 11.9773 109.382 11.9773ZM119.043 13.1818C118.202 13.1818 117.476 12.9962 116.866 12.625C116.26 12.25 115.793 11.7273 115.463 11.0568C115.137 10.3826 114.974 9.59848 114.974 8.70455C114.974 7.81061 115.137 7.02273 115.463 6.34091C115.793 5.6553 116.251 5.12121 116.838 4.73864C117.429 4.35227 118.118 4.15909 118.906 4.15909C119.361 4.15909 119.81 4.23485 120.253 4.38636C120.696 4.53788 121.099 4.78409 121.463 5.125C121.827 5.46212 122.116 5.90909 122.332 6.46591C122.548 7.02273 122.656 7.70833 122.656 8.52273V9.09091H115.929V7.93182H121.293C121.293 7.43939 121.194 7 120.997 6.61364C120.804 6.22727 120.527 5.92235 120.168 5.69886C119.812 5.47538 119.391 5.36364 118.906 5.36364C118.372 5.36364 117.91 5.49621 117.52 5.76136C117.134 6.02273 116.836 6.36364 116.628 6.78409C116.42 7.20455 116.315 7.6553 116.315 8.13636V8.90909C116.315 9.56818 116.429 10.1269 116.656 10.5852C116.887 11.0398 117.207 11.3864 117.616 11.625C118.026 11.8598 118.501 11.9773 119.043 11.9773C119.395 11.9773 119.713 11.928 119.997 11.8295C120.285 11.7273 120.533 11.5758 120.741 11.375C120.95 11.1705 121.111 10.9167 121.224 10.6136L122.52 10.9773C122.384 11.4167 122.154 11.803 121.832 12.1364C121.51 12.4659 121.113 12.7235 120.639 12.9091C120.166 13.0909 119.634 13.1818 119.043 13.1818Z" fill="white" fill-opacity="0.9"/>
<defs>
<linearGradient id="paint0_linear_1714_7680" x1="206" y1="-5" x2="206" y2="19" gradientUnits="userSpaceOnUse">
<stop stop-color="#3AD6C7"/>
<stop offset="1" stop-color="#2445EE"/>
</linearGradient>
</defs>
</svg>
