<svg width="135" height="135" viewBox="0 0 135 135" fill="none" xmlns="http://www.w3.org/2000/svg">
<circle cx="68" cy="68.0391" r="46.5" fill="#F8BD00"/>
<circle cx="68" cy="68.0391" r="56.5" fill="#F8BD00" fill-opacity="0.3"/>
<circle cx="67.5" cy="67.5391" r="67" fill="#F8BD00" fill-opacity="0.1"/>
<g clip-path="url(#clip0_620_31445)">
<path d="M85.5362 78.5749L70.7696 54.0856C70.1878 53.1208 69.1266 52.5215 68 52.5215C66.8733 52.5215 65.8121 53.1208 65.2303 54.0857L50.4637 78.5749C49.8625 79.572 49.8447 80.8214 50.4173 81.8353C50.99 82.8492 52.069 83.479 53.2334 83.479H82.7666C83.9309 83.479 85.01 82.8492 85.5827 81.8352C86.1553 80.8212 86.1375 79.5719 85.5362 78.5749ZM83.5418 80.6827C83.3842 80.9618 83.0871 81.1352 82.7666 81.1352H53.2334C52.9128 81.1352 52.6157 80.9618 52.4582 80.6828C52.3005 80.4036 52.3054 80.0597 52.4709 79.7852L67.2376 55.2959C67.3977 55.0304 67.6899 54.8654 68 54.8654C68.3101 54.8654 68.6023 55.0304 68.7624 55.2959L83.529 79.7852C83.6946 80.0597 83.6995 80.4036 83.5418 80.6827Z" fill="white"/>
<path d="M68.0112 62.1641C67.1196 62.1641 66.4238 62.6425 66.4238 63.4906C66.4238 66.0782 66.7282 69.7966 66.7282 72.3843C66.7283 73.0584 67.3155 73.3411 68.0113 73.3411C68.5331 73.3411 69.2725 73.0584 69.2725 72.3843C69.2725 69.7967 69.5769 66.0783 69.5769 63.4906C69.5769 62.6425 68.8593 62.1641 68.0112 62.1641Z" fill="white"/>
<path d="M68.0318 74.8418C67.0751 74.8418 66.3574 75.6029 66.3574 76.5162C66.3574 77.4078 67.075 78.1906 68.0318 78.1906C68.9234 78.1906 69.6845 77.4078 69.6845 76.5162C69.6845 75.6029 68.9233 74.8418 68.0318 74.8418Z" fill="white"/>
</g>
<defs>
<clipPath id="clip0_620_31445">
<rect width="36" height="36" fill="white" transform="translate(50 50)"/>
</clipPath>
</defs>
</svg>
