<svg width="16" height="16" viewBox="0 0 16 16" fill="none" xmlns="http://www.w3.org/2000/svg">
<g clip-path="url(#clip0_864_16855)">
<path d="M13.6377 3.03669L8.32367 0.0840275C8.22458 0.0289207 8.11306 0 7.99967 0C7.88629 0 7.77477 0.0289207 7.67567 0.0840275L2.36167 3.03669C2.04994 3.20989 1.79019 3.46328 1.60933 3.77063C1.42846 4.07797 1.33306 4.42808 1.33301 4.78469L1.33301 12.6667C1.33407 13.5504 1.6856 14.3977 2.31049 15.0225C2.93538 15.6474 3.78261 15.999 4.66634 16H11.333C12.2167 15.999 13.064 15.6474 13.6889 15.0225C14.3138 14.3977 14.6653 13.5504 14.6663 12.6667V4.78469C14.6663 4.42808 14.5709 4.07797 14.39 3.77063C14.2092 3.46328 13.9494 3.20989 13.6377 3.03669V3.03669ZM13.333 12.6667C13.333 13.1971 13.1223 13.7058 12.7472 14.0809C12.3721 14.456 11.8634 14.6667 11.333 14.6667H4.66634C4.13591 14.6667 3.6272 14.456 3.25213 14.0809C2.87705 13.7058 2.66634 13.1971 2.66634 12.6667V4.78469C2.66604 4.66544 2.69774 4.54829 2.75813 4.44545C2.81852 4.34262 2.90538 4.25787 3.00967 4.20003L7.99967 1.42936L12.9903 4.20003C13.0945 4.25795 13.1812 4.34274 13.2415 4.44557C13.3018 4.5484 13.3334 4.66551 13.333 4.78469V12.6667Z" fill="white"/>
<path d="M8 5.66602C8.55228 5.66602 9 5.2183 9 4.66602C9 4.11373 8.55228 3.66602 8 3.66602C7.44772 3.66602 7 4.11373 7 4.66602C7 5.2183 7.44772 5.66602 8 5.66602Z" fill="white"/>
</g>
<defs>
<clipPath id="clip0_864_16855">
<rect width="16" height="16" fill="white"/>
</clipPath>
</defs>
</svg>
