<svg width="16" height="16" viewBox="0 0 16 16" fill="none" xmlns="http://www.w3.org/2000/svg">
<path d="M9.33357 2.66741C9.33376 2.49749 9.39882 2.33405 9.51547 2.21049C9.63211 2.08694 9.79154 2.01258 9.96116 2.00262C10.1308 1.99267 10.2978 2.04785 10.4281 2.15691C10.5584 2.26597 10.6422 2.42067 10.6622 2.58941L10.6669 2.66741V11.7247L12.1956 10.1961C12.3155 10.0765 12.4765 10.0071 12.6458 10.0019C12.8151 9.99675 12.98 10.0562 13.1071 10.1682C13.2341 10.2803 13.3138 10.4364 13.3298 10.6051C13.3459 10.7737 13.2972 10.9421 13.1936 11.0761L13.1382 11.1387L10.5849 13.6921C10.1422 14.1354 9.39623 13.8514 9.33757 13.2501L9.33357 13.1734V2.66741ZM2.86223 5.8054C2.74745 5.69061 2.67849 5.53788 2.66831 5.37586C2.65812 5.21384 2.7074 5.05367 2.8069 4.9254L2.86223 4.86274L5.41557 2.3094C5.85823 1.86607 6.60423 2.15007 6.6629 2.7514L6.6669 2.82807L6.6669 13.3341C6.66671 13.504 6.60165 13.6674 6.485 13.791C6.36835 13.9145 6.20893 13.9889 6.0393 13.9989C5.86968 14.0088 5.70265 13.9536 5.57234 13.8446C5.44204 13.7355 5.3583 13.5808 5.33823 13.4121L5.33357 13.3341V4.27674L3.8049 5.8054C3.67988 5.93039 3.51034 6.0006 3.33357 6.0006C3.15679 6.0006 2.98725 5.93039 2.86223 5.8054Z" fill="white"/>
</svg>
