<svg width="18" height="16" viewBox="0 0 18 16" fill="none" xmlns="http://www.w3.org/2000/svg">
<g clip-path="url(#clip0_620_30860)">
<path d="M16.6718 0L9.34863 5.4186L10.7104 2.22527L16.6718 0Z" fill="#E17726"/>
<path d="M0.412505 0.00585938L6.3579 2.22513L7.65097 5.46033L0.412505 0.00585938ZM13.7238 11.5233L16.9605 11.5849L15.8293 15.4277L11.8798 14.3403L13.7238 11.5233ZM3.34237 11.5233L5.1795 14.3403L1.23664 15.4278L0.112305 11.5849L3.34237 11.5233Z" fill="#E27625"/>
<path d="M7.47619 4.63751L7.60846 8.90971L3.65039 8.72964L4.77626 7.03111L4.79052 7.01478L7.47619 4.63751ZM9.55106 4.58984L12.2777 7.01491L12.2919 7.03118L13.4177 8.72971L9.46052 8.90971L9.55106 4.58984ZM5.29646 11.537L7.45766 13.2209L4.94712 14.433L5.29646 11.537ZM11.7722 11.5367L12.1143 14.433L9.61072 13.2208L11.7722 11.5367Z" fill="#E27625"/>
<path d="M9.66563 13.0605L12.2061 14.2907L9.84296 15.4137L9.86749 14.6715L9.66563 13.0605ZM7.40116 13.0611L7.20723 14.6593L7.22316 15.4129L4.85449 14.2907L7.40116 13.0611Z" fill="#D5BFB2"/>
<path d="M6.66762 9.4668L7.33149 10.862L5.07129 10.1999L6.66762 9.4668ZM10.4 9.46693L12.0038 10.1999L9.73622 10.8618L10.4 9.46693Z" fill="#233447"/>
<path d="M5.46806 11.5215L5.10273 14.5241L3.14453 11.5871L5.46806 11.5215ZM11.5981 11.5215L13.9217 11.5871L11.9561 14.5243L11.5981 11.5215ZM13.4738 8.55859L11.7828 10.282L10.479 9.68619L9.8548 10.9985L9.4456 8.74186L13.4738 8.55859ZM3.59133 8.55859L7.62033 8.74186L7.21106 10.9985L6.58673 9.68639L5.28986 10.2821L3.59133 8.55859Z" fill="#CC6228"/>
<path d="M3.47754 8.20464L5.39074 10.146L5.45701 12.0626L3.47754 8.20464ZM13.5907 8.20117L11.6076 12.066L11.6823 10.146L13.5907 8.20117ZM7.52694 8.32291L7.60394 8.80757L7.79421 10.015L7.67187 13.7233L7.09354 10.7443L7.09334 10.7135L7.52694 8.32291ZM9.53834 8.31617L9.97307 10.7135L9.97287 10.7443L9.39307 13.7308L9.37014 12.9838L9.27967 9.99297L9.53834 8.31617Z" fill="#E27525"/>
<path d="M11.8521 10.0703L11.7874 11.7355L9.7691 13.308L9.3611 13.0197L9.81844 10.664L11.8521 10.0703ZM5.2207 10.0703L7.2473 10.664L7.70464 13.0197L7.29664 13.308L5.2783 11.7354L5.2207 10.0703Z" fill="#F5841F"/>
<path d="M4.46777 13.9238L7.04991 15.1473L7.03897 14.6248L7.25504 14.4352H9.81064L10.0345 14.6242L10.018 15.1462L12.5838 13.9269L11.3352 14.9586L9.82557 15.9955H7.23431L5.72564 14.9544L4.46777 13.9238Z" fill="#C0AC9D"/>
<path d="M9.47974 12.8984L9.84481 13.1564L10.0587 14.8633L9.74914 14.6019H7.31741L7.01367 14.8686L7.22061 13.1565L7.58581 12.8984H9.47974Z" fill="#161616"/>
<path d="M16.1876 0.150391L17.0667 2.78752L16.5177 5.45399L16.9086 5.75552L16.3796 6.15912L16.7772 6.46619L16.2507 6.94559L16.5739 7.17966L15.7162 8.18139L12.1982 7.15706L12.1677 7.14072L9.6326 5.00219L16.1876 0.150391ZM0.879067 0.150391L7.43413 5.00219L4.89893 7.14072L4.86847 7.15706L1.35047 8.18139L0.492733 7.17966L0.815667 6.94579L0.289533 6.46619L0.686333 6.15946L0.1494 5.75472L0.555067 5.45299L0 2.78766L0.879067 0.150391Z" fill="#763E1A"/>
<path d="M12.0258 6.93223L15.7533 8.0175L16.9643 11.7499H13.7694L11.5681 11.7776L13.169 8.6571L12.0258 6.93223ZM5.0402 6.93223L3.8968 8.6571L5.49793 11.7776L3.2976 11.7499H0.108398L1.3126 8.01756L5.0402 6.93223ZM10.8919 2.20703L9.84933 5.02296L9.62806 8.82696L9.5434 10.0193L9.53666 13.0652H7.52926L7.52273 10.025L7.4378 8.82596L7.21646 5.02296L6.174 2.20703H10.8919Z" fill="#F5841F"/>
</g>
<defs>
<clipPath id="clip0_620_30860">
<rect width="17.0667" height="16" fill="white"/>
</clipPath>
</defs>
</svg>
