<svg width="33" height="33" viewBox="0 0 33 33" fill="none" xmlns="http://www.w3.org/2000/svg">
<g clip-path="url(#clip0_618_30586)">
<path d="M16.5 5.5C16.1353 5.5 15.7856 5.35513 15.5277 5.09727C15.2699 4.83941 15.125 4.48967 15.125 4.125V1.375C15.125 1.01033 15.2699 0.660591 15.5277 0.402728C15.7856 0.144866 16.1353 0 16.5 0C16.8647 0 17.2144 0.144866 17.4723 0.402728C17.7301 0.660591 17.875 1.01033 17.875 1.375V4.125C17.875 4.48967 17.7301 4.83941 17.4723 5.09727C17.2144 5.35513 16.8647 5.5 16.5 5.5ZM17.875 31.625V28.875C17.875 28.5103 17.7301 28.1606 17.4723 27.9027C17.2144 27.6449 16.8647 27.5 16.5 27.5C16.1353 27.5 15.7856 27.6449 15.5277 27.9027C15.2699 28.1606 15.125 28.5103 15.125 28.875V31.625C15.125 31.9897 15.2699 32.3394 15.5277 32.5973C15.7856 32.8551 16.1353 33 16.5 33C16.8647 33 17.2144 32.8551 17.4723 32.5973C17.7301 32.3394 17.875 31.9897 17.875 31.625ZM5.5 16.5C5.5 16.1353 5.35513 15.7856 5.09727 15.5277C4.83941 15.2699 4.48967 15.125 4.125 15.125H1.375C1.01033 15.125 0.660591 15.2699 0.402728 15.5277C0.144866 15.7856 0 16.1353 0 16.5C0 16.8647 0.144866 17.2144 0.402728 17.4723C0.660591 17.7301 1.01033 17.875 1.375 17.875H4.125C4.48967 17.875 4.83941 17.7301 5.09727 17.4723C5.35513 17.2144 5.5 16.8647 5.5 16.5ZM33 16.5C33 16.1353 32.8551 15.7856 32.5973 15.5277C32.3394 15.2699 31.9897 15.125 31.625 15.125H28.875C28.5103 15.125 28.1606 15.2699 27.9027 15.5277C27.6449 15.7856 27.5 16.1353 27.5 16.5C27.5 16.8647 27.6449 17.2144 27.9027 17.4723C28.1606 17.7301 28.5103 17.875 28.875 17.875H31.625C31.9897 17.875 32.3394 17.7301 32.5973 17.4723C32.8551 17.2144 33 16.8647 33 16.5ZM23.8961 6.48313L25.2711 4.103C25.4405 3.7882 25.4807 3.41979 25.383 3.07589C25.2854 2.73199 25.0577 2.43963 24.7481 2.26081C24.4386 2.08198 24.0716 2.03074 23.7249 2.11796C23.3782 2.20517 23.0791 2.42399 22.891 2.728L21.516 5.10812C21.3336 5.42377 21.2839 5.79894 21.3781 6.15116C21.4722 6.50338 21.7023 6.8038 22.0179 6.98637C22.2264 7.10834 22.4638 7.17242 22.7054 7.172C22.9469 7.17185 23.1841 7.10811 23.3931 6.98718C23.6021 6.86625 23.7756 6.6924 23.8961 6.48313ZM10.1049 30.2706L11.4799 27.8905C11.6493 27.5757 11.6894 27.2073 11.5918 26.8634C11.4942 26.5195 11.2664 26.2271 10.9569 26.0483C10.6473 25.8695 10.2803 25.8182 9.93361 25.9055C9.58692 25.9927 9.28783 26.2115 9.09975 26.5155L7.72475 28.8956C7.54219 29.2111 7.49236 29.5862 7.58621 29.9384C7.68007 30.2905 7.90992 30.5911 8.22525 30.7739C8.43386 30.8957 8.67116 30.9598 8.91275 30.9595C9.15407 30.96 9.39128 30.897 9.60054 30.7768C9.80979 30.6566 9.98373 30.4835 10.1049 30.2747V30.2706ZM6.98362 10.9821C7.16618 10.6666 7.21601 10.2916 7.12216 9.9394C7.02831 9.5872 6.79846 9.28668 6.48313 9.10388L4.103 7.72887C3.7882 7.55947 3.41979 7.51932 3.07589 7.61696C2.73199 7.71459 2.43963 7.94232 2.26081 8.25187C2.08198 8.56142 2.03074 8.92845 2.11796 9.27514C2.20517 9.62183 2.42399 9.92092 2.728 10.109L5.10812 11.484C5.42377 11.6664 5.79894 11.7161 6.15116 11.6219C6.50338 11.5278 6.8038 11.2977 6.98637 10.9821H6.98362ZM30.7711 24.7747C30.8617 24.6185 30.9207 24.4459 30.9445 24.2668C30.9684 24.0878 30.9568 23.9058 30.9103 23.7312C30.8638 23.5567 30.7834 23.393 30.6737 23.2495C30.5639 23.1061 30.4269 22.9856 30.2706 22.8951L27.8905 21.5201C27.5757 21.3507 27.2073 21.3106 26.8634 21.4082C26.5195 21.5058 26.2271 21.7336 26.0483 22.0431C25.8695 22.3527 25.8182 22.7197 25.9055 23.0664C25.9927 23.4131 26.2115 23.7122 26.5155 23.9002L28.8956 25.2752C29.1042 25.3972 29.3415 25.4613 29.5831 25.4609C29.8246 25.4613 30.0619 25.398 30.2711 25.2776C30.4804 25.1571 30.6543 24.9837 30.7752 24.7747H30.7711ZM10.9821 6.98362C11.2977 6.80105 11.5278 6.50063 11.6219 6.14841C11.7161 5.79619 11.6664 5.42102 11.484 5.10538L10.109 2.72525C9.92092 2.42124 9.62183 2.20242 9.27514 2.11521C8.92845 2.02799 8.56142 2.07923 8.25187 2.25806C7.94232 2.43688 7.71459 2.72924 7.61696 3.07314C7.51932 3.41704 7.55947 3.78545 7.72887 4.10025L9.10388 6.48037C9.22455 6.6894 9.39812 6.86297 9.60714 6.98365C9.81616 7.10433 10.0533 7.16787 10.2946 7.16787C10.5361 7.16872 10.7734 7.10511 10.9821 6.98362ZM24.7747 30.7711C25.0901 30.5883 25.3199 30.2878 25.4138 29.9356C25.5076 29.5834 25.4578 29.2084 25.2752 28.8929L23.9002 26.5127C23.7122 26.2087 23.4131 25.9899 23.0664 25.9027C22.7197 25.8155 22.3527 25.8667 22.0431 26.0456C21.7336 26.2244 21.5058 26.5167 21.4082 26.8606C21.3106 27.2045 21.3507 27.5729 21.5201 27.8877L22.8951 30.2679C22.9856 30.4242 23.1061 30.5612 23.2495 30.6709C23.393 30.7807 23.5567 30.8611 23.7312 30.9076C23.9058 30.9541 24.0878 30.9657 24.2668 30.9418C24.4459 30.9179 24.6185 30.859 24.7747 30.7684V30.7711ZM27.8946 11.4799L30.2747 10.1049C30.5788 9.91679 30.7976 9.6177 30.8848 9.27101C30.972 8.92432 30.9208 8.55729 30.7419 8.24775C30.5631 7.9382 30.2708 7.71046 29.9269 7.61283C29.583 7.5152 29.2146 7.55534 28.8997 7.72475L26.5196 9.09975C26.2156 9.28783 25.9968 9.58692 25.9096 9.93361C25.8224 10.2803 25.8736 10.6473 26.0524 10.9569C26.2313 11.2664 26.5236 11.4942 26.8675 11.5918C27.2114 11.6894 27.5798 11.6493 27.8946 11.4799ZM4.10712 25.2711L6.48725 23.8961C6.79127 23.708 7.01008 23.409 7.09729 23.0623C7.18451 22.7156 7.13327 22.3485 6.95444 22.039C6.77562 21.7294 6.48326 21.5017 6.13936 21.4041C5.79546 21.3064 5.42705 21.3466 5.11225 21.516L2.73213 22.891C2.47001 23.0424 2.26516 23.276 2.14934 23.5556C2.03352 23.8352 2.0132 24.1453 2.09154 24.4376C2.16988 24.73 2.34249 24.9883 2.58262 25.1726C2.82274 25.3569 3.11695 25.4567 3.41963 25.4567C3.65945 25.4577 3.89525 25.3951 4.103 25.2752L4.10712 25.2711Z" fill="url(#paint0_linear_618_30586)"/>
</g>
<defs>
<linearGradient id="paint0_linear_618_30586" x1="0" y1="16.5" x2="32.625" y2="16.5" gradientUnits="userSpaceOnUse">
<stop stop-color="#2445EE"/>
<stop offset="1" stop-color="#3AD6C7"/>
</linearGradient>
<clipPath id="clip0_618_30586">
<rect width="33" height="33" fill="white"/>
</clipPath>
</defs>
</svg>
