<svg width="135" height="134" viewBox="0 0 135 134" fill="none" xmlns="http://www.w3.org/2000/svg">
<circle cx="68" cy="67.5" r="46.5" fill="#00C247"/>
<circle cx="68" cy="67.5" r="56.5" fill="#00C247" fill-opacity="0.3"/>
<circle cx="67.5" cy="67" r="67" fill="#00C247" fill-opacity="0.1"/>
<g clip-path="url(#clip0_620_31675)">
<path fill-rule="evenodd" clip-rule="evenodd" d="M84.2046 54.9452C84.6967 55.4375 84.9731 56.105 84.9731 56.8011C84.9731 57.4972 84.6967 58.1647 84.2046 58.657L64.5293 78.3322C64.2693 78.5923 63.9606 78.7986 63.6209 78.9393C63.2811 79.0801 62.917 79.1525 62.5492 79.1525C62.1814 79.1525 61.8173 79.0801 61.4775 78.9393C61.1378 78.7986 60.8291 78.5923 60.5691 78.3322L50.7936 68.5585C50.5429 68.3163 50.3429 68.0267 50.2053 67.7064C50.0677 67.3861 49.9953 67.0417 49.9923 66.6931C49.9893 66.3446 50.0557 65.9989 50.1877 65.6763C50.3196 65.3537 50.5146 65.0607 50.761 64.8142C51.0075 64.5677 51.3006 64.3728 51.6232 64.2408C51.9458 64.1088 52.2915 64.0424 52.64 64.0454C52.9885 64.0485 53.333 64.1209 53.6533 64.2585C53.9735 64.396 54.2632 64.596 54.5053 64.8467L62.5483 72.8897L80.4911 54.9452C80.7348 54.7013 81.0243 54.5078 81.3429 54.3758C81.6615 54.2437 82.003 54.1758 82.3478 54.1758C82.6927 54.1758 83.0342 54.2437 83.3528 54.3758C83.6713 54.5078 83.9608 54.7013 84.2046 54.9452Z" fill="white"/>
</g>
<defs>
<clipPath id="clip0_620_31675">
<rect width="42" height="42" fill="white" transform="translate(46.5 46)"/>
</clipPath>
</defs>
</svg>
