<svg width="11" height="9" viewBox="0 0 11 9" fill="none" xmlns="http://www.w3.org/2000/svg">
<path d="M10.2295 1.03137L3.89583 7.36462C3.85324 7.40737 3.80264 7.44129 3.74691 7.46444C3.69119 7.48758 3.63144 7.4995 3.5711 7.4995C3.51076 7.4995 3.45101 7.48758 3.39528 7.46444C3.33956 7.44129 3.28895 7.40737 3.24637 7.36462L0.797036 4.91299C0.754453 4.87024 0.703846 4.83632 0.648121 4.81317C0.592396 4.79002 0.532648 4.77811 0.472307 4.77811C0.411966 4.77811 0.352218 4.79002 0.296493 4.81317C0.240768 4.83632 0.190161 4.87024 0.147578 4.91299C0.104826 4.95557 0.0709036 5.00618 0.047757 5.06191C0.0246104 5.11763 0.0126953 5.17738 0.0126953 5.23772C0.0126953 5.29806 0.0246104 5.35781 0.047757 5.41354C0.0709036 5.46926 0.104826 5.51987 0.147578 5.56245L2.59783 8.01224C2.8563 8.27024 3.20658 8.41514 3.57179 8.41514C3.93699 8.41514 4.28727 8.27024 4.54574 8.01224L10.879 1.68037C10.9217 1.63779 10.9555 1.58721 10.9786 1.53153C11.0018 1.47585 11.0136 1.41615 11.0136 1.35587C11.0136 1.29558 11.0018 1.23589 10.9786 1.1802C10.9555 1.12452 10.9217 1.07394 10.879 1.03137C10.8364 0.988615 10.7858 0.954693 10.7301 0.931546C10.6744 0.9084 10.6146 0.896484 10.5543 0.896484C10.4939 0.896484 10.4342 0.9084 10.3785 0.931546C10.3227 0.954693 10.2721 0.988615 10.2295 1.03137Z" fill="#00C247"/>
</svg>
